# xmcd CD database file generated by Grip 2.95
# 
# Track frame offsets:
#       150
#       20350
#       37117
#       59047
#       77440
#       95785
#       110945
#       143227
#       166012
#       183145
#       202267
#       215495
#       227607
#       245760
#       266282
# 
# Disc length: 3761 seconds
# 
# Revision: 3
# Processed by: cddbd v1.4b41PL3 Copyright (c) Steve Scherf et al.
# Submitted via: Grip 2.95
# 
DISCID=d90eaf0f
DTITLE=Various Artist - Award Winning Blues On Alligator
DYEAR=1900
DGENRE=
TTITLE0=It's 2 A. M. - Shemekia Copeland
TTITLE1=The Big Eye - Rusty Zinn
TTITLE2=That's My Partner - Elvin Bishop and Little Smokey
TTITLE3=Blues Hotel - B.B. King and KoKo Taylor
TTITLE4=I Need Your Love In My Life - CoCo Montoya
TTITLE5=Two-Fisted Mama - Katie Webster
TTITLE6=Wha's Going On In My Home - Luther Allison
TTITLE7=Roll Me Baby - S Terry/J. Winter/W. Dixon
TTITLE8=Dump That Chump - Little Charlie And The Nightcats
TTITLE9=If You Let A Man Kick You Once - Corey Harris and Henry Butler
TTITLE10=I'm Your Santa - Lil' Ed And The Blues Imperials
TTITLE11=Saturday Night Blues - William Clarke
TTITLE12=Second Hand Man - Carey Bell and Junior Wells
TTITLE13=Ego Trip - Albert Collins and The Icebreakers
TTITLE14=Ain't Got Nobody - Hound Dog Taylor
EXTD=
EXTT0=
EXTT1=
EXTT2=
EXTT3=
EXTT4=
EXTT5=
EXTT6=
EXTT7=
EXTT8=
EXTT9=
EXTT10=
EXTT11=
EXTT12=
EXTT13=
EXTT14=
PLAYORDER=
